HIERARCHY
ROOT Root
{
  OFFSET 0.0 0.0 0.0
  CHANNELS 6 Xposition Yposition Zposition Zrotation Yrotation Xrotation
  JOINT Hips
  {
    OFFSET 0.0 100.0 0.0
    CHANNELS 6 Xposition Yposition Zposition Zrotation Yrotation Xrotation
    JOINT Spine1
    {
      OFFSET 5.003913 -0.037094 -0.013727
      CHANNELS 3 Zrotation Yrotation Xrotation
      JOINT Spine2
      {
        OFFSET 7.125363 -1e-06 0.0
        CHANNELS 3 Zrotation Yrotation Xrotation
        JOINT Chest
        {
          OFFSET 7.594027 1e-06 0.0
          CHANNELS 3 Zrotation Yrotation Xrotation
          JOINT Neck1
          {
            OFFSET 26.313086 -0.460272 -0.181672
            CHANNELS 3 Zrotation Yrotation Xrotation
            JOINT Neck2
            {
              OFFSET 8.045911 0.0 0.0
              CHANNELS 3 Zrotation Yrotation Xrotation
              JOINT Head
              {
                OFFSET 6.432774 0.0 0.0
                CHANNELS 3 Zrotation Yrotation Xrotation
                JOINT HeadEnd
                {
                  OFFSET 16.169773 0.06451 0.00362
                  CHANNELS 3 Zrotation Yrotation Xrotation
                }
                JOINT Jaw
                {
                  OFFSET 0.108741 3.12938 0.002639
                  CHANNELS 3 Zrotation Yrotation Xrotation
                }
                JOINT LeftEye
                {
                  OFFSET 4.45173 8.166359 3.206392
                  CHANNELS 3 Zrotation Yrotation Xrotation
                }
                JOINT RightEye
                {
                  OFFSET 4.436895 8.135758 -3.222429
                  CHANNELS 3 Zrotation Yrotation Xrotation
                }
              }
            }
          }
          JOINT LeftShoulder
          {
            OFFSET 23.218927 5.195579 1.621656
            CHANNELS 3 Zrotation Yrotation Xrotation
            JOINT LeftArm
            {
              OFFSET 15.902118 2e-06 -2e-06
              CHANNELS 3 Zrotation Yrotation Xrotation
              JOINT LeftForeArm
              {
                OFFSET 28.739307 0.0 -1e-06
                CHANNELS 3 Zrotation Yrotation Xrotation
                JOINT LeftHand
                {
                  OFFSET 27.093981 -4e-06 0.0
                  CHANNELS 3 Zrotation Yrotation Xrotation
                  JOINT LeftHandThumb1
                  {
                    OFFSET 2.276781 3.380274 0.83384
                    CHANNELS 3 Zrotation Yrotation Xrotation
                    JOINT LeftHandThumb2
                    {
                      OFFSET 4.705309 -1e-06 -1e-06
                      CHANNELS 3 Zrotation Yrotation Xrotation
                      JOINT LeftHandThumb3
                      {
                        OFFSET 2.798515 0.0 3e-06
                        CHANNELS 3 Zrotation Yrotation Xrotation
                        JOINT LeftHandThumbEnd
                        {
                          OFFSET 3.180793 4e-06 -4e-06
                          CHANNELS 3 Zrotation Yrotation Xrotation
                        }
                      }
                    }
                  }
                  JOINT LeftHandIndex1
                  {
                    OFFSET 3.247786 2.352677 0.137192
                    CHANNELS 3 Zrotation Yrotation Xrotation
                    JOINT LeftHandIndex2
                    {
                      OFFSET 6.367095 1e-06 0.0
                      CHANNELS 3 Zrotation Yrotation Xrotation
                      JOINT LeftHandIndex3
                      {
                        OFFSET 3.662364 0.0 0.0
                        CHANNELS 3 Zrotation Yrotation Xrotation
                        JOINT LeftHandIndex4
                        {
                          OFFSET 2.329242 4e-06 -4e-06
                          CHANNELS 3 Zrotation Yrotation Xrotation
                          JOINT LeftHandIndexEnd
                          {
                            OFFSET 2.767823 1e-06 0.0
                            CHANNELS 3 Zrotation Yrotation Xrotation
                          }
                        }
                      }
                    }
                  }
                  JOINT LeftHandMiddle1
                  {
                    OFFSET 3.163612 0.945023 -0.406112
                    CHANNELS 3 Zrotation Yrotation Xrotation
                    JOINT LeftHandMiddle2
                    {
                      OFFSET 6.276789 3e-06 0.0
                      CHANNELS 3 Zrotation Yrotation Xrotation
                      JOINT LeftHandMiddle3
                      {
                        OFFSET 4.35652 -1e-06 4e-06
                        CHANNELS 3 Zrotation Yrotation Xrotation
                        JOINT LeftHandMiddle4
                        {
                          OFFSET 2.996877 0.0 8e-06
                          CHANNELS 3 Zrotation Yrotation Xrotation
                          JOINT LeftHandMiddleEnd
                          {
                            OFFSET 2.323256 3e-06 -4e-06
                            CHANNELS 3 Zrotation Yrotation Xrotation
                          }
                        }
                      }
                    }
                  }
                  JOINT LeftHandRing1
                  {
                    OFFSET 2.882606 -0.309162 0.107445
                    CHANNELS 3 Zrotation Yrotation Xrotation
                    JOINT LeftHandRing2
                    {
                      OFFSET 6.033198 0.0 4e-06
                      CHANNELS 3 Zrotation Yrotation Xrotation
                      JOINT LeftHandRing3
                      {
                        OFFSET 4.350578 3e-06 0.0
                        CHANNELS 3 Zrotation Yrotation Xrotation
                        JOINT LeftHandRing4
                        {
                          OFFSET 2.651321 2e-06 -7e-06
                          CHANNELS 3 Zrotation Yrotation Xrotation
                          JOINT LeftHandRingEnd
                          {
                            OFFSET 1.937663 1e-06 -4e-06
                            CHANNELS 3 Zrotation Yrotation Xrotation
                          }
                        }
                      }
                    }
                  }
                  JOINT LeftHandPinky1
                  {
                    OFFSET 2.865315 -1.525436 0.575687
                    CHANNELS 3 Zrotation Yrotation Xrotation
                    JOINT LeftHandPinky2
                    {
                      OFFSET 5.54936 1e-06 -8e-06
                      CHANNELS 3 Zrotation Yrotation Xrotation
                      JOINT LeftHandPinky3
                      {
                        OFFSET 3.070974 0.0 -4e-06
                        CHANNELS 3 Zrotation Yrotation Xrotation
                        JOINT LeftHandPinky4
                        {
                          OFFSET 1.549672 1e-06 0.0
                          CHANNELS 3 Zrotation Yrotation Xrotation
                          JOINT LeftHandPinkyEnd
                          {
                            OFFSET 1.952123 0.0 0.0
                            CHANNELS 3 Zrotation Yrotation Xrotation
                          }
                        }
                      }
                    }
                  }
                }
              }
            }
          }
          JOINT RightShoulder
          {
            OFFSET 23.161716 5.296122 -1.380114
            CHANNELS 3 Zrotation Yrotation Xrotation
            JOINT RightArm
            {
              OFFSET -16.027195 -2e-06 1.1e-05
              CHANNELS 3 Zrotation Yrotation Xrotation
              JOINT RightForeArm
              {
                OFFSET -28.736639 4e-06 2e-06
                CHANNELS 3 Zrotation Yrotation Xrotation
                JOINT RightHand
                {
                  OFFSET -27.133619 6e-06 0.0
                  CHANNELS 3 Zrotation Yrotation Xrotation
                  JOINT RightHandThumb1
                  {
                    OFFSET -2.274328 -3.351035 -0.83067
                    CHANNELS 3 Zrotation Yrotation Xrotation
                    JOINT RightHandThumb2
                    {
                      OFFSET -4.703594 -3e-06 2e-06
                      CHANNELS 3 Zrotation Yrotation Xrotation
                      JOINT RightHandThumb3
                      {
                        OFFSET -2.794935 -4e-06 -3e-06
                        CHANNELS 3 Zrotation Yrotation Xrotation
                        JOINT RightHandThumbEnd
                        {
                          OFFSET -3.183852 4e-06 1e-06
                          CHANNELS 3 Zrotation Yrotation Xrotation
                        }
                      }
                    }
                  }
                  JOINT RightHandIndex1
                  {
                    OFFSET -3.253496 -2.33755 -0.127667
                    CHANNELS 3 Zrotation Yrotation Xrotation
                    JOINT RightHandIndex2
                    {
                      OFFSET -6.344434 0.0 0.0
                      CHANNELS 3 Zrotation Yrotation Xrotation
                      JOINT RightHandIndex3
                      {
                        OFFSET -3.654871 0.0 -8e-06
                        CHANNELS 3 Zrotation Yrotation Xrotation
                        JOINT RightHandIndex4
                        {
                          OFFSET -2.327586 -1e-06 0.0
                          CHANNELS 3 Zrotation Yrotation Xrotation
                          JOINT RightHandIndexEnd
                          {
                            OFFSET -2.770001 3e-06 8e-06
                            CHANNELS 3 Zrotation Yrotation Xrotation
                          }
                        }
                      }
                    }
                  }
                  JOINT RightHandMiddle1
                  {
                    OFFSET -3.168223 -0.944764 0.411762
                    CHANNELS 3 Zrotation Yrotation Xrotation
                    JOINT RightHandMiddle2
                    {
                      OFFSET -6.266691 -1e-06 -4e-06
                      CHANNELS 3 Zrotation Yrotation Xrotation
                      JOINT RightHandMiddle3
                      {
                        OFFSET -4.348901 0.0 0.0
                        CHANNELS 3 Zrotation Yrotation Xrotation
                        JOINT RightHandMiddle4
                        {
                          OFFSET -3.00024 2e-06 -4e-06
                          CHANNELS 3 Zrotation Yrotation Xrotation
                          JOINT RightHandMiddleEnd
                          {
                            OFFSET -2.321477 -4e-06 -4e-06
                            CHANNELS 3 Zrotation Yrotation Xrotation
                          }
                        }
                      }
                    }
                  }
                  JOINT RightHandRing1
                  {
                    OFFSET -2.885654 0.293261 -0.119232
                    CHANNELS 3 Zrotation Yrotation Xrotation
                    JOINT RightHandRing2
                    {
                      OFFSET -6.032835 -1e-06 -4e-06
                      CHANNELS 3 Zrotation Yrotation Xrotation
                      JOINT RightHandRing3
                      {
                        OFFSET -4.33881 0.0 -4e-06
                        CHANNELS 3 Zrotation Yrotation Xrotation
                        JOINT RightHandRing4
                        {
                          OFFSET -2.654903 -4e-06 -4e-06
                          CHANNELS 3 Zrotation Yrotation Xrotation
                          JOINT RightHandRingEnd
                          {
                            OFFSET -1.935122 0.0 4e-06
                            CHANNELS 3 Zrotation Yrotation Xrotation
                          }
                        }
                      }
                    }
                  }
                  JOINT RightHandPinky1
                  {
                    OFFSET -2.866241 1.503904 -0.60527
                    CHANNELS 3 Zrotation Yrotation Xrotation
                    JOINT RightHandPinky2
                    {
                      OFFSET -5.553177 -2e-06 0.0
                      CHANNELS 3 Zrotation Yrotation Xrotation
                      JOINT RightHandPinky3
                      {
                        OFFSET -3.062664 -1e-06 -4e-06
                        CHANNELS 3 Zrotation Yrotation Xrotation
                        JOINT RightHandPinky4
                        {
                          OFFSET -1.546529 2e-06 4e-06
                          CHANNELS 3 Zrotation Yrotation Xrotation
                          JOINT RightHandPinkyEnd
                          {
                            OFFSET -1.952341 0.0 -4e-06
                            CHANNELS 3 Zrotation Yrotation Xrotation
                          }
                        }
                      }
                    }
                  }
                }
              }
            }
          }
        }
      }
    }
    JOINT LeftLeg
    {
      OFFSET -8.443107 2.567604 10.043214
      CHANNELS 3 Zrotation Yrotation Xrotation
      JOINT LeftShin
      {
        OFFSET 43.229198 1e-06 -1e-06
        CHANNELS 3 Zrotation Yrotation Xrotation
        JOINT LeftFoot
        {
          OFFSET 42.298611 1e-06 1e-06
          CHANNELS 3 Zrotation Yrotation Xrotation
          JOINT LeftToeBase
          {
            OFFSET 14.165858 1e-06 0.0
            CHANNELS 3 Zrotation Yrotation Xrotation
            JOINT LeftToeEnd
            {
              OFFSET 6.7141 -0.234461 0.0
              CHANNELS 3 Zrotation Yrotation Xrotation
            }
          }
        }
      }
    }
    JOINT RightLeg
    {
      OFFSET -8.303923 2.592729 -10.047278
      CHANNELS 3 Zrotation Yrotation Xrotation
      JOINT RightShin
      {
        OFFSET -43.369682 0.0 1e-06
        CHANNELS 3 Zrotation Yrotation Xrotation
        JOINT RightFoot
        {
          OFFSET -42.260784 4e-06 2e-06
          CHANNELS 3 Zrotation Yrotation Xrotation
          JOINT RightToeBase
          {
            OFFSET -14.222245 -2e-06 -1e-06
            CHANNELS 3 Zrotation Yrotation Xrotation
            JOINT RightToeEnd
            {
              OFFSET -6.660062 0.232574 -2e-06
              CHANNELS 3 Zrotation Yrotation Xrotation
            }
          }
        }
      }
    }
  }
}
MOTION
Frames: 5
Frame Time: 0.03333333333333333
0.0 0.0 0.0 0.0 -0.0 0.0 -0.791943 83.036896 5.082239 92.207634 1.731242 88.289047 14.174891 4.171067 0.706051 -4.840516 1.00542 0.07197 24.560122 7.750854 2.977631 12.341002 21.686808 0.488583 -2.013328 -0.751221 -2.678338 -36.869152 2.735824 -9.218641 6e-06 -2e-06 1e-06 -0.037072 -0.124872 0.305214 0.002713 -0.063596 0.342351 0.061748 -0.166175 0.238356 -23.662416 -74.314819 32.164688 76.627647 -49.132809 -71.00753 73.158585 0.667724 0.567378 0.019026 17.221672 42.740993 17.636635 -26.322729 52.411198 -19.466661 -14.395598 29.410385 -2e-06 -8.774821 -2e-06 17.63456 -18.18409 5.480055 -0.609777 -1.795655 -3.889328 -4.80709 -11.046809 -2.937852 6e-06 -20.976015 0.0 -5.019968 -25.033556 -4.03188 5e-06 1e-06 1e-06 -10.634537 -5.686971 -3.565587 10.573276 -17.922953 -3.113901 4e-06 -13.821209 2e-06 -0.501773 -31.181505 -4.027019 -11.607673 -58.650604 6.739465 -13.982718 -7.150198 -2.875042 13.772732 -8.401493 -3.218242 0.347736 -34.211552 0.771655 -0.963027 -17.733368 2.62102 -0.0 -1e-06 -1e-06 -17.346422 -20.095217 -4.201783 21.757563 -1.638378 3.866428 2e-06 -6.338823 1e-06 -1.697587 -22.591738 -6.194006 0.0 -8e-06 -2e-06 4.170628 -86.378258 -176.80925 83.103821 -28.781137 -41.592934 127.086815 2.623106 0.776087 -5.884005 -26.717987 19.718065 22.182116 -20.375893 49.933327 -16.701818 -16.74353 28.476536 -0.0 -12.690604 -1e-06 16.125202 -17.479445 2.89234 -0.105919 -1.513857 -4.275882 -5.039044 -5.612875 -2.95356 3e-06 -11.020528 -2e-06 -6.1113 -15.895338 -3.840474 0.0 1e-06 1e-06 -10.283371 -5.680288 -4.34184 11.028297 -11.302409 -2.372636 -1.384269 -14.238583 -6.320127 -0.625437 -26.924194 -3.827602 -5.374372 -51.118481 -2.357322 -13.708527 -7.363477 -3.720938 18.141159 -14.052746 -3.242677 7e-06 -18.787275 -3e-06 -0.42971 -8.456045 2.555501 -1e-06 0.0 -0.0 -15.923538 -20.094492 -5.473587 30.419218 -7.190828 1.735926 3e-06 -8.16293 -1e-06 -1.861902 -22.861483 -6.167947 1e-06 -4e-06 -1e-06 170.402908 -13.549859 -0.208158 71.768135 -0.859533 0.950746 -93.162132 21.091738 -12.391147 -27.317757 2.311485 1.960959 -1.0 0.0 0.0 -43.537888 -4.228998 1.860715 82.790947 -0.451493 0.697878 -91.052467 11.643374 0.523265 -13.7104 0.80806 1.613601 -1.000002 -0.0 0.0 
0.0 0.0 0.0 0.0 -0.0 0.0 -0.401728 82.366638 5.536386 92.226997 1.882016 88.672096 14.307534 4.235201 0.712037 -4.811355 1.058592 0.007528 24.580761 7.719928 2.972229 10.67584 21.124081 0.492865 -2.032811 -0.754486 -3.474049 -37.414646 2.57319 -9.864676 6e-06 -3e-06 2e-06 -0.062259 -0.125532 0.277339 0.042071 -0.048885 0.330822 0.098131 -0.183645 0.193037 -22.034163 -74.425156 30.386393 75.919395 -48.077499 -71.194893 74.236992 0.811576 0.822519 -0.295773 15.326231 41.817875 17.636631 -26.322729 52.411186 -19.466658 -14.3956 29.410385 -1e-06 -8.774822 -1e-06 17.361006 -18.151218 5.63179 -0.609777 -1.795654 -3.889327 -4.807089 -11.046811 -2.93785 3e-06 -20.976019 2e-06 -5.019974 -25.03356 -4.03188 6e-06 -0.0 0.0 -10.634533 -5.68697 -3.565587 10.573275 -17.922951 -3.113901 2e-06 -13.821209 2e-06 -0.50178 -31.181505 -4.027015 -11.486754 -58.626308 6.653211 -13.982715 -7.150198 -2.875041 13.772731 -8.40149 -3.218241 0.347732 -34.211555 0.771656 -0.963029 -17.733368 2.621021 -0.0 -2e-06 -1e-06 -17.34642 -20.095217 -4.201781 21.757557 -1.638377 3.866428 1e-06 -6.338825 1e-06 -1.697591 -22.591743 -6.194004 -0.0 -7e-06 -3e-06 -1.014497 -86.098763 -171.478165 82.301918 -28.120735 -41.99704 127.406113 2.820383 0.574264 -5.863595 -26.59403 18.808035 22.182106 -20.375895 49.933308 -16.701817 -16.74353 28.476532 -3e-06 -12.690599 0.0 16.135197 -17.534693 2.88973 -0.10592 -1.513855 -4.275883 -5.039038 -5.612872 -2.953554 4e-06 -11.020524 -1e-06 -6.111293 -15.895329 -3.840472 -0.0 0.0 1e-06 -10.283365 -5.680286 -4.341838 11.028293 -11.302407 -2.372633 -1.384267 -14.238575 -6.320121 -0.625435 -26.924183 -3.8276 -5.289554 -50.890335 -2.354823 -13.708521 -7.363473 -3.720938 18.14115 -14.052739 -3.242676 6e-06 -18.78727 -2e-06 -0.429712 -8.456042 2.555504 1e-06 -0.0 -1e-06 -15.92353 -20.094479 -5.473584 30.419207 -7.190825 1.735925 3e-06 -8.162925 -0.0 -1.861902 -22.861464 -6.167939 2e-06 -4e-06 -1e-06 170.394165 -13.497224 -0.161858 73.121407 -0.901619 0.924924 -93.64447 20.235044 -11.888783 -27.838854 2.281474 1.943575 -0.999999 0.0 0.0 -43.440842 -4.747411 1.960933 83.811272 -0.443785 0.645744 -92.981964 11.826683 -0.392628 -13.55956 0.782849 1.619414 -1.000002 -1e-06 -0.0 
0.0 0.0 0.0 0.0 -0.0 0.0 -0.152342 81.460327 5.9339 92.197716 1.973072 89.153435 14.458237 4.171064 0.696198 -4.745409 1.07039 -0.104704 24.628428 7.617816 2.899051 8.82226 20.389763 0.530149 -2.063163 -0.814386 -4.346482 -37.870029 2.135382 -10.524543 6e-06 -2e-06 1e-06 -0.067403 -0.136113 0.27092 0.041585 -0.047403 0.334388 0.08343 -0.207402 0.174872 -20.315683 -74.724113 28.488895 74.882927 -46.919796 -71.119347 75.74614 0.865622 0.857852 -0.66132 13.340336 41.471325 17.636629 -26.322729 52.411179 -19.466665 -14.395598 29.410381 -2e-06 -8.77482 -2e-06 17.191614 -18.206383 5.734088 -0.609776 -1.795654 -3.889328 -4.807088 -11.046809 -2.937851 6e-06 -20.976015 1e-06 -5.019969 -25.033558 -4.03188 5e-06 -1e-06 1e-06 -10.634533 -5.686968 -3.565587 10.573276 -17.922951 -3.113901 5e-06 -13.821206 1e-06 -0.501774 -31.181498 -4.027014 -11.56688 -58.617367 6.680742 -13.982714 -7.150196 -2.875042 13.772731 -8.401496 -3.218241 0.347738 -34.211552 0.771654 -0.963027 -17.73337 2.62102 -1e-06 -1e-06 0.0 -17.346416 -20.095213 -4.201781 21.757557 -1.638378 3.866427 2e-06 -6.338825 1e-06 -1.697587 -22.59174 -6.194004 -0.0 -5e-06 -2e-06 -7.272155 -85.864357 -165.094559 81.634399 -27.588358 -42.981552 127.692055 2.894955 0.479239 -5.808586 -26.618599 18.280331 22.182102 -20.375896 49.933304 -16.701811 -16.743528 28.47653 -2e-06 -12.690598 0.0 16.113968 -17.554991 2.961465 -0.105918 -1.513854 -4.275884 -5.039039 -5.612874 -2.953554 3e-06 -11.020521 -2e-06 -6.111297 -15.89533 -3.840471 0.0 0.0 -1e-06 -10.283366 -5.680288 -4.341835 11.028291 -11.302406 -2.372634 -1.384269 -14.238575 -6.32012 -0.625439 -26.924185 -3.8276 -5.310658 -50.805077 -2.295484 -13.708518 -7.363475 -3.720939 18.141146 -14.052737 -3.242672 5e-06 -18.787268 -3e-06 -0.429713 -8.456041 2.555505 0.0 0.0 -2e-06 -15.92353 -20.094479 -5.473582 30.419205 -7.190823 1.735923 2e-06 -8.162925 0.0 -1.861902 -22.861464 -6.16794 2e-06 -4e-06 -2e-06 170.152832 -13.673304 0.028698 74.730133 -0.936002 0.890985 -95.038719 18.923363 -11.691975 -28.360373 2.274817 1.93317 -0.999999 0.0 0.0 -43.711208 -5.074312 2.018217 85.409515 -0.465232 0.644634 -94.810791 11.666245 -0.964609 -13.587301 0.764825 1.61028 -1.000001 0.0 -0.0 
0.0 0.0 0.0 0.0 -0.0 0.0 -0.030793 80.417183 6.200858 92.046097 1.901346 89.72789 14.673883 4.041605 0.695663 -4.657792 1.058641 -0.207756 24.669691 7.434946 2.787399 6.767234 19.52631 0.629591 -2.069522 -0.897872 -5.130977 -38.365696 1.564488 -11.117893 5e-06 -1e-06 1e-06 -0.062548 -0.144461 0.265559 0.022019 -0.051986 0.330252 0.047055 -0.220814 0.168201 -18.381861 -75.076561 26.239538 73.793449 -45.763641 -71.178963 77.68602 0.629766 0.687307 -0.741622 11.67242 42.014008 17.636633 -26.322733 52.411201 -19.466665 -14.395602 29.410395 -1e-06 -8.774824 -2e-06 17.086086 -18.309692 5.804432 -0.609777 -1.795654 -3.889328 -4.80709 -11.04681 -2.937851 5e-06 -20.976017 0.0 -5.019969 -25.033556 -4.031882 6e-06 -0.0 -0.0 -10.634537 -5.68697 -3.565588 10.573277 -17.922953 -3.113902 4e-06 -13.821211 1e-06 -0.501776 -31.181511 -4.027016 -11.725863 -58.682854 6.757551 -13.982718 -7.150198 -2.875042 13.772733 -8.401494 -3.218242 0.347736 -34.211555 0.771655 -0.963027 -17.73337 2.62102 -0.0 -0.0 -0.0 -17.346424 -20.095217 -4.201782 21.757566 -1.638378 3.866428 2e-06 -6.338823 1e-06 -1.697589 -22.591743 -6.194006 -0.0 -6e-06 -2e-06 -14.168244 -85.732079 -158.133133 81.175568 -27.187035 -44.371109 128.026367 3.010239 0.470253 -5.585242 -26.798569 18.255796 22.182106 -20.375883 49.9333 -16.701817 -16.74353 28.476526 -3e-06 -12.690599 0.0 16.097763 -17.549421 3.035069 -0.105919 -1.513856 -4.275882 -5.039039 -5.61287 -2.953556 4e-06 -11.02052 -1e-06 -6.111295 -15.895328 -3.840474 -0.0 1e-06 2e-06 -10.283367 -5.680285 -4.341837 11.028292 -11.302404 -2.372633 -1.384268 -14.238574 -6.320121 -0.625438 -26.924179 -3.827598 -5.328384 -50.843967 -2.276172 -13.70852 -7.363472 -3.72094 18.141148 -14.052738 -3.242675 7e-06 -18.787264 -3e-06 -0.42971 -8.45604 2.555502 -1e-06 0.0 -1e-06 -15.923534 -20.094479 -5.473584 30.419207 -7.190824 1.735924 3e-06 -8.162924 2e-06 -1.861902 -22.861464 -6.167941 2e-06 -4e-06 1e-06 169.474091 -14.169413 0.356977 76.626335 -0.974901 0.864048 -96.727486 17.812929 -11.777522 -28.773579 2.286071 1.922103 -1.0 0.0 -0.0 -44.417488 -5.084161 2.067558 87.378677 -0.494022 0.645771 -96.296738 11.19639 -1.232374 -13.670141 0.749831 1.597893 -1.000003 0.0 0.0 
0.0 0.0 0.0 0.0 -0.0 0.0 0.006668 79.324097 6.305324 91.769287 1.614884 90.386452 15.00417 3.875388 0.720019 -4.538157 1.044398 -0.239497 24.719366 7.184084 2.647597 4.496112 18.47467 0.826207 -2.069974 -0.971324 -5.831619 -38.856972 1.033906 -11.669334 7e-06 2e-06 -0.0 -0.060443 -0.154534 0.256511 -0.000958 -0.060168 0.317686 0.015635 -0.234577 0.163356 -15.988696 -75.333199 23.389275 72.926048 -44.540535 -71.439049 80.07196 0.256209 0.491484 -0.524172 10.390005 42.679085 17.636629 -26.322729 52.411194 -19.466656 -14.395597 29.410381 -1e-06 -8.774821 -2e-06 17.023497 -18.43652 5.872549 -0.609777 -1.795654 -3.889328 -4.807089 -11.046809 -2.93785 4e-06 -20.976017 -1e-06 -5.01997 -25.033556 -4.03188 5e-06 -1e-06 0.0 -10.634533 -5.686969 -3.565588 10.573272 -17.922947 -3.1139 2e-06 -13.821206 1e-06 -0.501777 -31.181501 -4.027016 -11.972541 -58.855083 6.905505 -13.982712 -7.150198 -2.875042 13.772728 -8.401493 -3.218241 0.347734 -34.211544 0.771654 -0.963029 -17.73337 2.62102 0.0 1e-06 0.0 -17.346416 -20.095217 -4.201784 21.757557 -1.638376 3.866428 1e-06 -6.338822 1e-06 -1.697589 -22.591742 -6.194006 -1e-06 -5e-06 -2e-06 -22.316418 -85.587181 -150.000183 80.971115 -26.887222 -46.193455 128.486343 3.114645 0.517942 -5.083075 -26.936911 18.157177 22.182106 -20.375895 49.933319 -16.701817 -16.74353 28.476532 -4e-06 -12.690598 3e-06 16.076412 -17.524061 3.103467 -0.105917 -1.513859 -4.275882 -5.03904 -5.612871 -2.953557 5e-06 -11.020524 -2e-06 -6.111295 -15.89533 -3.840472 0.0 0.0 1e-06 -10.283366 -5.680289 -4.341837 11.028292 -11.302406 -2.372634 -1.384266 -14.238581 -6.32012 -0.625437 -26.924189 -3.827601 -5.315467 -50.929642 -2.289577 -13.708519 -7.363476 -3.720938 18.141146 -14.05274 -3.242674 6e-06 -18.78727 -1e-06 -0.429712 -8.456041 2.555504 -1e-06 1e-06 -0.0 -15.92353 -20.094482 -5.473583 30.419205 -7.190827 1.735922 2e-06 -8.162925 0.0 -1.8619 -22.861469 -6.167945 0.0 -4e-06 0.0 168.262604 -14.880722 0.876727 78.800568 -1.041572 0.856385 -98.238991 16.838863 -11.898943 -29.078382 2.301568 1.905078 -1.000001 0.0 -0.0 -45.617031 -4.864237 2.053082 89.624527 -0.536427 0.644576 -97.072472 10.582289 -1.265628 -13.943783 0.746521 1.583744 -1.000002 -0.0 0.0 
